<svg id="Ebene_1" data-name="Ebene 1" xmlns="http://www.w3.org/2000/svg" viewBox="0 0 283.46 149.05"><defs><style>.cls-1,.cls-2{fill:white;}.cls-2{stroke:white;stroke-miterlimit:10;stroke-width:0.5px;}</style></defs><path class="cls-1" d="M74.65,51.83A110.52,110.52,0,0,1,110.08,29a113.18,113.18,0,0,1,11.49-3.87l-1.41-1.83C111.39,35,99,43.29,86.93,51.3l1.51,2c10.23-8.32,21.56-15.73,34.1-20a64.36,64.36,0,0,1,18.82-3.6c1.54,0,3.08,0,4.62.05.61,0,1.6,0,2,.51s-.11,1.58-.42,2.12a25.9,25.9,0,0,1-3,3.75c-1.2,1.39-2.42,2.75-3.66,4.11C131.36,50.56,120.75,59.87,110,68.92Q92.8,83.38,75.15,97.27t-35.62,27.1c-1.06.78-2.77,2.48-4.2,2.43-1.74-.07-1.14-2.61-.92-3.67a37.24,37.24,0,0,1,3.36-9.3,92.41,92.41,0,0,1,11-16.14c16.11-19.78,36.81-35.51,59.52-47C133.44,38,161,30.54,188.76,26.76c3.54-.49,7.1-.9,10.66-1.27l-.63-2.33L165.51,48.28l1.51,2a98.87,98.87,0,0,1,45.44-19.72,95.76,95.76,0,0,1,14.25-1.16,1.25,1.25,0,0,0,0-2.5,100.5,100.5,0,0,0-61.46,21.61c-1.1.87.38,2.82,1.52,2l33.28-25.12c.86-.65.75-2.47-.63-2.33C169.56,26.06,140,33,112.69,45.81,88.47,57.16,66.19,73.22,48.89,93.7a113.74,113.74,0,0,0-12,16.41,45.55,45.55,0,0,0-4.2,9.47c-.74,2.42-2.06,6.27-.16,8.5,2.56,3,6.35-.18,8.61-1.84q4.68-3.45,9.33-6.94Q60,112.24,69.28,105,87.85,90.6,105.92,75.57c11.59-9.64,23.14-19.4,33.59-30.28q3.81-4,7.4-8.14c1.7-2,4.94-5.16,3.34-8.06a3.88,3.88,0,0,0-3.12-1.81,38.21,38.21,0,0,0-5.35-.14,64.16,64.16,0,0,0-10.25,1.12c-13.43,2.56-25.83,9.18-36.84,17.09-2.74,2-5.4,4-8,6.15-1.09.89.34,2.74,1.52,2,12.45-8.27,25.08-16.8,34.13-28.93.67-.91-.44-2.11-1.42-1.84A113.33,113.33,0,0,0,82.2,42.05a111,111,0,0,0-9.31,8c-1.17,1.12.6,2.88,1.76,1.77Z"/><path class="cls-1" d="M133.69,71.52a477.6,477.6,0,0,1,81.8-10.9q11.7-.54,23.42-.5a1.25,1.25,0,0,0,0-2.5,480.85,480.85,0,0,0-82.9,7q-11.55,2-23,4.53c-1.57.35-.9,2.76.67,2.41Z"/><path class="cls-2" d="M224.58,71.67l-4.72.82.55-.55-4.57,28.71-.28-.46,4.4.74-.19,1.28h-10.3l.18-1.28,4.72-.78-.55.59L218.22,73l.32.14L204.21,93.87l-1.61.19L195.14,73l.37,0-4.4,27.74-.27-.46,4.39.74-.18,1.28H184.93l.18-1.28,4.72-.78-.55.5L193.81,72l.37.5-4.49-.59.18-1.28,6.69-.23,7.51,21.52h-.46l14.47-21.29,6.68-.23Z"/><path class="cls-2" d="M229.48,70.62l10.76-.23-.18,1.28-4.63.82.46-.5-4.63,29.12a16.59,16.59,0,0,1-.59,2.36,8.8,8.8,0,0,1-1.21,2.36,5.94,5.94,0,0,1-2.2,1.78,8,8,0,0,1-3.55.69,13.76,13.76,0,0,1-2.11-.18l.37-1.65.73.07.83,0a6.15,6.15,0,0,0,2.77-.53,4.33,4.33,0,0,0,1.6-1.33,5.29,5.29,0,0,0,.82-1.67,10.66,10.66,0,0,0,.35-1.55L233.74,72l.41.5-4.85-.59Z"/></svg>
