<svg xmlns="http://www.w3.org/2000/svg" viewBox="0 0 1133.86 1133.86"><defs><style>.cls-1{fill:#54B3DD;}</style></defs><g id="Layer_1"><path class="cls-1" d="M637.45,524.93s40-67.92,68.64-135.16c0,0,15.21-50.93-41.08-11.95L531.75,473.89,504,498.45l-14.61,16c-3.7,21.17-4.52,55-4.52,55-11.9,128-48.05,211-71,251.09a143.46,143.46,0,0,1-40.52,45C261.24,946.39,251,799.26,251,799.26c-9.12-138.51,209.31-307.58,209.31-307.58,4.89-2.26,4.11-18.68,4.4-22.75,2.3-41.35,4.64-92.45,2.87-104.19,0,0-2.54-91.35-54.81-16.43-36.44,52.24-95.47,139.16-95.47,139.16s28.44-165.77,12.14-149.68c0,0-9.55,3.41-88.76,121.82,0,0,79.3-188.56,111.08-162.64,0,0,11.11,14.86,3.82,82.47,0,0,83.49-152.28,126.76-104.4,0,0,32.68,30.7,16.44,187.93,0,0,170-152.28,228-146.22,0,0,61.3,10.14-12.34,131.19,0,0,62.84-33.83,136.69-60.71C780.38,258.35,643.35,171,485.86,171c-230,0-416.43,186.32-416.43,416.15s186.44,416.14,416.43,416.14S902.28,816.94,902.28,587.11A414.29,414.29,0,0,0,865.39,415.9c-3.85,1.72-7.67,3.41-11.64,5.29Z"/><path class="cls-1" d="M303,752.88S272.54,865,355.4,810.42c0,0,36.39-13.91,76.56-145.44,0,0,21.89-85.13,21-120.81C452.93,544.17,317.4,672.21,303,752.88Z"/><path class="cls-1" d="M851.15,387.23c5.13,9.33,9.83,18.92,14.24,28.67,178.49-79.89,218.17,15,218.25,27.54C1092.22,323.18,959.77,347.69,851.15,387.23Z"/></g></svg>
