<?xml version="1.0" ?><!DOCTYPE svg  PUBLIC '-//W3C//DTD SVG 1.1//EN'  'http://www.w3.org/Graphics/SVG/1.1/DTD/svg11.dtd'><svg height="512px" style="enable-background:new 0 0 512 512;" version="1.1" viewBox="0 0 512 512" width="512px" xml:space="preserve" xmlns="http://www.w3.org/2000/svg" xmlns:xlink="http://www.w3.org/1999/xlink"><g id="_x32__x2C__Animate_x2C__Adobe"><g><rect height="510.575" style="fill:#FF4A19;" width="510.576" x="1.207" y="0.712"/><rect height="465.646" style="fill:#260600;" width="465.646" x="23.669" y="23.179"/><g><g><g><path d="M148.765,293.272l-18.383,62.595c-0.307,2.147-1.225,2.864-3.062,2.864H96.481       c-2.146,0-2.757-1.126-2.146-3.576c16.338-55.043,43.807-146.741,63.108-209.033c0.918-3.571,1.839-7.147,2.451-19.808       c0-1.432,0.918-2.144,1.839-2.144h41.662c1.532,0,1.839,0.405,2.45,1.837c22.365,73.726,46.872,155.011,69.746,229.454       c0.613,2.144,0,3.27-1.837,3.27h-33.801c-1.532,0-2.146-0.717-2.757-2.148l-19.301-63.311H148.765L148.765,293.272z        M209.828,258.041c-6.024-24.099-20.831-72.703-26.855-97.826h-0.307c-4.494,23.691-16.952,64.437-25.938,97.826H209.828z" style="fill:#FF4A19;"/><path d="M292.032,225.265c0-12.256,0.508-22.672-0.103-29.818c0-1.837,0.307-2.86,2.042-2.86       c0,0,47.585-14.501,76.078-12.256c22.771,1.841,48.706,14.707,48.706,73.014v102.522c0,1.841-0.916,2.864-2.349,2.864H385.57       c-1.738,0-2.658-1.126-2.658-3.27V252.937c0-23.384-9.701-39.417-27.466-39.417c-11.03,0-16.033,1.735-27.672,7.352v134.996       c0,2.147-0.613,2.864-2.353,2.864h-31.144c-1.534,0-2.042-0.717-2.042-3.27V225.265H292.032z" style="fill:#FF4A19;"/></g></g></g></g></g><g id="Layer_1"/></svg>