<svg xmlns="http://www.w3.org/2000/svg" xmlns:xlink="http://www.w3.org/1999/xlink" viewBox="0 0 395.1 394.73"><defs><style>.cls-1,.cls-5{fill:#fff;}.cls-1{stroke:#1d1d1b;stroke-miterlimit:10;}.cls-2{fill:url(#radial-gradient);}.cls-3{mask:url(#mask);}.cls-4{opacity:0.4;}</style><radialGradient id="radial-gradient" cx="205.45" cy="208.29" r="225.35" gradientUnits="userSpaceOnUse"><stop offset="0" stop-color="#ffd200"/><stop offset="0.32" stop-color="#f8a705"/><stop offset="1" stop-color="#e74210"/></radialGradient><mask id="mask" x="-165.93" y="-147.9" width="722.04" height="542.62" maskUnits="userSpaceOnUse"><g transform="translate(-2.45 -2.64)"><ellipse class="cls-1" cx="197.54" cy="49.12" rx="360.52" ry="193.88"/></g></mask></defs><title>houdinibadge</title><g id="logo_white_bkg"><path class="cls-2" d="M374.94,2.64H25.06A22.61,22.61,0,0,0,2.45,25.25v90.68C36.43,89.85,80.65,73,133,73c112.11.07,183.28,78.4,183.25,177.22,0,68.65-32.06,120.28-82.22,147.13h140.9a22.61,22.61,0,0,0,22.61-22.61V25.25A22.61,22.61,0,0,0,374.94,2.64Z" transform="translate(-2.45 -2.64)"/><path class="cls-2" d="M2.45,325.47v49.28a22.61,22.61,0,0,0,22.61,22.61H65.38C34.8,380,13.2,353.51,2.45,325.47Z" transform="translate(-2.45 -2.64)"/><path class="cls-2" d="M133,117.35C76.24,115.39,32.07,136.21,2.45,167v69.35c20.14-58.19,75.65-84.88,122.15-84.41,58.09.58,102.91,44.4,103.17,93.93.25,47.34-19.59,82.19-73.11,90.78-29.18,4.68-74.85-12.43-72.82-56.52,1-22.74,18.75-35.58,39-34.65-19.85,26.6,6.43,46.1,25,42.13,23-4.92,32.37-25.35,32.37-41.19,0-16.72-15.75-43.72-54.84-42.79-48.37,1.14-78.81,35.94-79.84,79C42.3,336.75,93,372.35,145,373c76.36.95,121.66-49.14,121.56-122.5C266.45,184.08,213.14,120.12,133,117.35Z" transform="translate(-2.45 -2.64)"/><g class="cls-3"><g class="cls-4"><path class="cls-5" d="M374.94,2.64H25.06A22.61,22.61,0,0,0,2.45,25.25v90.68C36.43,89.85,80.65,73,133,73c112.11.07,183.28,78.4,183.25,177.22,0,68.65-32.06,120.28-82.22,147.13h140.9a22.61,22.61,0,0,0,22.61-22.61V25.25A22.61,22.61,0,0,0,374.94,2.64Z" transform="translate(-2.45 -2.64)"/><path class="cls-5" d="M2.45,325.47v49.28a22.61,22.61,0,0,0,22.61,22.61H65.38C34.8,380,13.2,353.51,2.45,325.47Z" transform="translate(-2.45 -2.64)"/><path class="cls-5" d="M133,117.35C76.24,115.39,32.07,136.21,2.45,167v69.35c20.14-58.19,75.65-84.88,122.15-84.41,58.09.58,102.91,44.4,103.17,93.93.25,47.34-19.59,82.19-73.11,90.78-29.18,4.68-74.85-12.43-72.82-56.52,1-22.74,18.75-35.58,39-34.65-19.85,26.6,6.43,46.1,25,42.13,23-4.92,32.37-25.35,32.37-41.19,0-16.72-15.75-43.72-54.84-42.79-48.37,1.14-78.81,35.94-79.84,79C42.3,336.75,93,372.35,145,373c76.36.95,121.66-49.14,121.56-122.5C266.45,184.08,213.14,120.12,133,117.35Z" transform="translate(-2.45 -2.64)"/></g></g></g></svg>