<?xml version="1.0" ?><!DOCTYPE svg  PUBLIC '-//W3C//DTD SVG 1.1//EN'  'http://www.w3.org/Graphics/SVG/1.1/DTD/svg11.dtd'><svg height="512px" style="enable-background:new 0 0 512 512;" version="1.1" viewBox="0 0 512 512" width="512px" xml:space="preserve" xmlns="http://www.w3.org/2000/svg" xmlns:xlink="http://www.w3.org/1999/xlink"><g id="_x31_1_x2C__Illustrator_x2C__Adobe_x2C__Ai"><g><rect height="510.578" style="fill:#F0A024;" width="510.576" x="1.207" y="0.711"/><rect height="465.646" style="fill:#373122;" width="465.646" x="23.669" y="23.179"/><g><g><g id="XMLID_335_"><g id="XMLID_341_"><g><path d="M177.76,291.347l-18.431,61.119c-0.303,2.109-1.21,2.813-3.021,2.813h-30.82         c-2.113,0-2.714-1.057-2.113-3.511c16.317-53.748,43.809-143.321,63.144-204.092c0.908-3.511,1.815-7.025,2.417-19.32         c0-1.403,0.908-2.107,1.815-2.107h41.696c1.508,0,1.811,0.352,2.416,1.756c22.354,72.011,46.827,151.4,69.788,224.113         c0.605,2.104,0,3.161-1.811,3.161h-33.841c-1.511,0-2.115-0.703-2.716-2.108l-19.339-61.823H177.76z M238.787,256.92         c-6.043-23.535-20.848-70.956-26.887-95.545h-0.303c-4.535,23.183-16.918,62.877-25.983,95.545H238.787z" id="XMLID_342_" style="fill:#F0A024;"/></g></g><g id="XMLID_337_"><g><path d="M335.278,139.531c0-12.996,8.607-21.776,20.183-21.776         c12.172,0,19.595,8.78,19.595,21.776c0,13.35-8.016,21.78-19.889,21.78C343.29,161.311,335.278,152.881,335.278,139.531z          M337.354,187.304c0-2.107,0.592-2.808,2.08-2.808h31.463c1.782,0,2.379,0.351,2.379,2.808v165.098         c0,1.76-0.597,2.808-2.379,2.808h-30.871c-1.78,0-2.672-0.698-2.672-3.157V187.304z" id="XMLID_338_" style="fill:#F0A024;"/></g></g></g></g></g></g></g><g id="Layer_1"/></svg>