<?xml version="1.0" ?><!DOCTYPE svg  PUBLIC '-//W3C//DTD SVG 1.1//EN'  'http://www.w3.org/Graphics/SVG/1.1/DTD/svg11.dtd'><svg height="512px" style="enable-background:new 0 0 512 512;" version="1.1" viewBox="0 0 512 512" width="512px" xml:space="preserve" xmlns="http://www.w3.org/2000/svg" xmlns:xlink="http://www.w3.org/1999/xlink"><g id="_x34__x2C__InDesign_x2C__Adobe"><g><rect height="510.578" style="fill:#FF418A;" width="510.576" x="1.207" y="0.711"/><rect height="465.646" style="fill:#26000D;" width="465.646" x="23.669" y="23.179"/><g><g><g><g><rect height="233.968" style="fill:#FF3B93;" width="38.515" x="144.566" y="137.433"/><path d="M329.21,137.433v59.82c0,0-6.896,0-11.494,0c-39.207,0-86.606,25.284-86.606,89.865        c0,49.925,25.301,87.448,79.179,87.448c39.672,0,58.358-13.722,58.358-13.722V137.433H329.21z M329.167,340.206        c0,0-4.539,1.998-15.252,1.998c-10.719,0-43.589-4.721-43.589-56.846c0-52.124,37.775-56.3,46.856-56.3        c9.078,0,11.984,2.544,11.984,2.544V340.206z" style="fill:#FF3B93;"/></g></g></g></g></g></g><g id="Layer_1"/></svg>