<?xml version="1.0" ?><!DOCTYPE svg  PUBLIC '-//W3C//DTD SVG 1.1//EN'  'http://www.w3.org/Graphics/SVG/1.1/DTD/svg11.dtd'><svg height="512px" style="enable-background:new 0 0 512 512;" version="1.1" viewBox="0 0 512 512" width="512px" xml:space="preserve" xmlns="http://www.w3.org/2000/svg" xmlns:xlink="http://www.w3.org/1999/xlink"><g id="_x32_2_x2C__Lightroom_x2C__Adobe"><g><rect height="510.578" style="fill:#AED3E9;" width="510.576" x="1.207" y="0.711"/><rect height="465.646" style="fill:#16222A;" width="465.646" x="23.669" y="23.179"/><g><g><g><path d="M261.756,338.757h-88.519V141.12c0-1.756-0.605-2.459-2.114-2.459h-32.03       c-1.807,0-2.413,1.057-2.413,2.813v227.843c0,2.46,0.605,3.512,3.018,3.512H256.02c1.508,0,2.416-0.349,3.021-2.458       l4.53-28.805C263.869,339.81,263.571,338.757,261.756,338.757z M374.483,197.94c-1.271-0.35-2.846-0.417-4.116-0.35       c-43.341,2.331-73.947,13.735-73.947,13.735c-1.586,0-2.216,0.703-1.9,2.109c0.945,11.591,1.575,23.26,1.575,38.717v118.375       c0,2.109,0.641,2.813,2.541,2.813h33.231c1.893,0,2.523-0.703,2.523-2.813V236.175c12.887-5.28,21.419-4.714,39.463-4.01       c1.892,0,2.531-0.704,2.531-2.458v-28.25C376.385,198.643,376.069,198.293,374.483,197.94z" style="fill:#AED3E9;"/></g></g></g></g></g><g id="Layer_1"/></svg>