<?xml version="1.0" encoding="UTF-8" standalone="no"?>
<svg
   xmlns:dc="http://purl.org/dc/elements/1.1/"
   xmlns:cc="http://creativecommons.org/ns#"
   xmlns:rdf="http://www.w3.org/1999/02/22-rdf-syntax-ns#"
   xmlns:svg="http://www.w3.org/2000/svg"
   xmlns="http://www.w3.org/2000/svg"
   xmlns:sodipodi="http://sodipodi.sourceforge.net/DTD/sodipodi-0.dtd"
   xmlns:inkscape="http://www.inkscape.org/namespaces/inkscape"
   version="1.1"
   id="svg2"
   xml:space="preserve"
   width="486.66666"
   height="486.66666"
   viewBox="0 0 486.66666 486.66666"
   sodipodi:docname="pftrack-seeklogo.com.eps"><metadata
     id="metadata8"><rdf:RDF><cc:Work
         rdf:about=""><dc:format>image/svg+xml</dc:format><dc:type
           rdf:resource="http://purl.org/dc/dcmitype/StillImage" /></cc:Work></rdf:RDF></metadata><defs
     id="defs6" /><sodipodi:namedview
     pagecolor="#ffffff"
     bordercolor="#666666"
     borderopacity="1"
     objecttolerance="10"
     gridtolerance="10"
     guidetolerance="10"
     inkscape:pageopacity="0"
     inkscape:pageshadow="2"
     inkscape:window-width="640"
     inkscape:window-height="480"
     id="namedview4" /><g
     id="g10"
     inkscape:groupmode="layer"
     inkscape:label="ink_ext_XXXXXX"
     transform="matrix(1.3333333,0,0,-1.3333333,0,486.66667)"><g
       id="g12"
       transform="scale(0.1)"><path
         d="M 3650,1825 C 3650,817.082 2832.92,0 1825,0 817.078,0 0,817.082 0,1825 c 0,1007.92 817.078,1825 1825,1825 1007.92,0 1825,-817.08 1825,-1825"
         style="fill:#100f0d;fill-opacity:1;fill-rule:nonzero;stroke:none"
         id="path14" /><path
         d="M 3235.31,2617.48 385.172,2029.59 v -839.82 l 2157.508,121.09 692.63,1306.62"
         style="fill:#3f3e40;fill-opacity:1;fill-rule:nonzero;stroke:none"
         id="path16" /><path
         d="m 861.41,613.379 549.36,10.543 463.4,822.608 574.06,-893.26 673.66,219.742 -908.09,1082.978 748.21,1197.22 -523.66,1.98 -569.1,-796.35 -615.86,744.41 L 684.879,2996.9 1496.52,1796.25 861.41,613.379"
         style="fill:#70b2e5;fill-opacity:1;fill-rule:nonzero;stroke:none"
         id="path18" /></g></g></svg>
