<svg xmlns="http://www.w3.org/2000/svg" xmlns:xlink="http://www.w3.org/1999/xlink" style="enable-background:new 0 0 512 512;" version="1.1" xml:space="preserve" viewBox="64 64 384 384"><style type="text/css">
	.st0{display:none;}
	.st1{fill:#E976FC;}
	.st2{fill:#271300;}
	.st3{fill:#E876FC;}
	.st4{fill:#2E0013;}
</style><g class="st0" id="Layer_1"/><g id="Layer_3"><rect class="st1" height="384" width="384" x="64" y="64"/><rect class="st2" height="337.9" width="337.9" x="87" y="87"/><path class="st3" d="M190.2,331.5h-14.3c-4.3,0-7.9-3.5-7.9-7.9l-1-157c0-3.4,1.6-6.3,4.8-7.3c7.9-2.5,29.3-1.9,40.2-1.9   c15.5,0,60,2,60,63.4c0,0-2.4,44.3-69,48.7c-4.1,0.3-6.3,1.1-6.3,5.2v49.5C196.6,328.5,194.5,331.5,190.2,331.5z"/><path class="st4" d="M196.4,244.1l0.7-56c0-2,1.5-3.8,3.6-4c10.8-1.5,42.9-2.8,42.8,31.7C243.5,215.8,246.9,246.4,196.4,244.1z"/><path class="st3" d="M293.6,271.1c0-17.3,0.1-34.6-0.1-51.9c-0.1-4.2,1.3-6.4,5.3-7.7c16.1-5.6,32.8-9,49.9-9.5   c4.2-0.1,6.1,1.5,5.7,5.6c0,0.5,0,1,0,1.5c-0.2,5.7,2.1,12.8-1,17c-3.8,5.4-10.2,2.4-16,2.6c-11.6,0.6-14.1,1.8-14.1,16   c0,25.8-0.2,51.6,0.1,77.4c0.1,6.7-2.2,8.6-8.6,8.7c-21.1,0.2-21.2,0.4-21.2-20.6C293.6,297.2,293.6,284.1,293.6,271.1   C293.7,271.1,293.7,271.1,293.6,271.1z"/></g></svg>