<svg xmlns="http://www.w3.org/2000/svg" viewBox="0 0 263.42 294.64">
  <title>logoHorizontal (2)</title>
  <path d="M264.19,376.34l-131.7-73.66v73.66l65.85,36.83Z" transform="translate(-0.77 -302.68)" style="fill:#ff2121;fill-opacity:0.4000000059604645"/>
  <path d="M.79,376.34l131.7-73.66v73.66L66.64,413.17Z" transform="translate(-0.77 -302.68)" style="fill:#ff2121;fill-opacity:0.5199999809265137"/>
  <path d="M198.34,413.17,132.49,450V376.34Z" transform="translate(-0.77 -302.68)" style="fill:#ff2121;fill-opacity:0.7699999809265137"/>
  <path d="M66.64,413.17,132.49,450V376.34Z" transform="translate(-0.77 -302.68)" style="fill:#ff2121;fill-opacity:0.8299999833106995"/>
  <path d="M132.49,523.66V450l65.85,36.83-65.85,36.83Z" transform="translate(-0.77 -302.68)" style="fill:#ff2121;fill-opacity:0.9300000071525574"/>
  <path d="M132.49,523.66V450L66.64,486.83Z" transform="translate(-0.77 -302.68)" style="fill:#ff2121;fill-opacity:0.8999999761581421"/>
  <path d="M132.47,597.31V523.64L66.62,486.81.77,523.64Z" transform="translate(-0.77 -302.68)" style="fill:#ff2121;fill-opacity:0.7799999713897705"/>
  <path d="M264.19,450v73.66l-65.85-36.83Z" transform="translate(-0.77 -302.68)" style="fill:#ff2121;fill-opacity:0.6299999952316284"/>
  <path d="M.79,450v73.66l65.85-36.83Z" transform="translate(-0.77 -302.68)" style="fill:#ff2121;fill-opacity:0.6299999952316284"/>
  <path d="M264.17,450l-65.85-36.83L132.47,450l65.85,36.83Z" transform="translate(-0.77 -302.68)" style="fill:#ff2121;fill-opacity:0.8600000143051147"/>
  <path d="M.79,450l65.86-36.81L132.51,450,66.64,486.81.79,450Z" transform="translate(-0.77 -302.68)" style="fill:#ff2121;fill-opacity:0.8600000143051147"/>
  <path d="M264.19,376.34V450l-65.85-36.83Z" transform="translate(-0.77 -302.68)" style="fill:#ff2121;fill-opacity:0.6299999952316284"/>
  <path d="M.8,376.34V450l65.85-36.83Z" transform="translate(-0.77 -302.68)" style="fill:#ff2121;fill-opacity:0.6299999952316284"/>
  <path d="M132.49,597.32V523.66l65.85-36.83,65.85,36.83-131.7,73.66Z" transform="translate(-0.77 -302.68)" style="fill:#ff2121;fill-opacity:0.8299999833106995"/>
</svg>
