<?xml version="1.0" standalone="no"?>
<!DOCTYPE svg PUBLIC "-//W3C//DTD SVG 20010904//EN"
  "http://www.w3.org/TR/2001/REC-SVG-20010904/DTD/svg10.dtd">
<svg xmlns="http://www.w3.org/2000/svg" version="1.0" preserveAspectRatio="xMidYMid meet" viewBox="0 0.3 372 425.81">
  <style type="text/css">
    .st0{fill:#E03028;}
    .st1{fill:#010101;}
  </style>
  <g transform="translate(0.000000,457.000000) scale(0.100000,-0.100000)"
     fill="#000000" stroke="none" class="st0">
    <path d="M920 4040 l-915 -528 -3 -490 -2 -491 32 -9 c79 -23 2524 -795 2536
      -802 9 -4 -114 -80 -338 -210 -193 -111 -359 -204 -368 -206 -9 -2 -235 122
      -507 279 l-490 283 -3 102 -3 101 -77 25 c-432 136 -759 239 -770 243 -10 4
      -12 -95 -10 -488 l3 -493 905 -518 c498 -284 914 -522 926 -528 19 -11 129 50
      953 521 l931 532 0 489 c0 268 -2 488 -4 488 -6 0 -2541 810 -2558 817 -13 6
      76 61 340 213 l358 206 497 -286 497 -285 0 -101 0 -100 419 -132 c231 -73
      427 -135 435 -138 14 -6 16 43 16 482 l0 489 -921 530 c-507 292 -931 531
      -943 532 -12 1 -409 -223 -936 -527z"/>
  </g>
</svg>
